<svg width="15" height="16" fill="none" xmlns="http://www.w3.org/2000/svg"><path d="M7.5 5.797a2.582 2.582 0 00-2.578 2.578A2.563 2.563 0 007.5 10.953a2.582 2.582 0 002.578-2.578A2.601 2.601 0 007.5 5.797zm0 3.75c-.674 0-1.172-.498-1.172-1.172 0-.645.498-1.172 1.172-1.172.645 0 1.172.527 1.172 1.172 0 .674-.527 1.172-1.172 1.172zm7.031-1.875h-1.465a5.657 5.657 0 00-4.863-4.863V1.344a.504.504 0 00-.469-.469h-.468a.482.482 0 00-.47.469v1.465c-2.548.322-4.57 2.343-4.892 4.863H.47A.482.482 0 000 8.14v.468c0 .264.205.47.469.47h1.435a5.658 5.658 0 004.893 4.892v1.435c0 .264.205.469.469.469h.468a.482.482 0 00.47-.469V13.97c2.519-.323 4.54-2.344 4.862-4.893h1.465A.482.482 0 0015 8.61v-.468a.504.504 0 00-.469-.47zM7.5 12.594a4.201 4.201 0 01-4.219-4.219A4.22 4.22 0 017.5 4.156c2.314 0 4.219 1.905 4.219 4.219A4.22 4.22 0 017.5 12.594z" fill="#22262A"/></svg>