<svg xmlns="http://www.w3.org/2000/svg" width="512" height="512"><path xmlns="http://www.w3.org/2000/svg" d="M508.552 128.922a18.187 18.187 0 00-14.688-7.557H125.496l-19.903-78.867a18.208 18.208 0 00-18.2-13.73H18.211C8.163 28.757.011 36.899 0 46.957c-.011 10.047 8.142 18.2 18.19 18.211h55.579l84.402 334.628c2.044 8.046 9.26 13.698 17.562 13.73h227.236c10.047 0 18.2-8.153 18.2-18.2s-8.153-18.2-18.2-18.2H190.101l-8.408-33.314h251.61a18.206 18.206 0 0017.242-12.559l60.561-186.046a18.18 18.18 0 00-2.554-16.285zm-88.447 178.596H172.54l-37.89-149.752h334.202l-48.747 149.752z" fill="#22262A" data-original="#293c7d"/><circle xmlns="http://www.w3.org/2000/svg" cx="173.498" cy="427.863" r="37.145" fill="#fff" data-original="#ffffff"/><path xmlns="http://www.w3.org/2000/svg" d="M173.498 483.24c-30.504 0-55.239-24.735-55.239-55.239 0-30.504 24.735-55.239 55.239-55.239s55.239 24.735 55.239 55.239c-.064 30.483-24.757 55.175-55.239 55.239zm0-74.503c-10.462 0-18.945 8.483-18.945 18.945s8.483 18.945 18.945 18.945 18.945-8.483 18.945-18.945c-.17-10.335-8.611-18.626-18.945-18.626v-.319z" fill="#22262A" data-original="#4899d2"/><circle xmlns="http://www.w3.org/2000/svg" cx="402.969" cy="427.863" r="37.145" fill="#fff" data-original="#ffffff"/><path xmlns="http://www.w3.org/2000/svg" d="M402.969 483.24c-30.504-.064-55.197-24.842-55.133-55.346.064-30.504 24.842-55.197 55.346-55.133 30.461.064 55.133 24.778 55.133 55.239-.064 30.526-24.821 55.24-55.346 55.24zm0-74.503c-10.462 0-18.945 8.483-18.945 18.945s8.483 18.945 18.945 18.945 18.945-8.483 18.945-18.945c-.17-10.335-8.61-18.626-18.945-18.626v-.319z" fill="#22262A" data-original="#4899d2"/></svg>