<svg width="163" height="21" fill="none" xmlns="http://www.w3.org/2000/svg"><path d="M18.592.344l-6.804 13.16V20H7v-6.496L.196.344h5.432l3.808 8.232 3.78-8.232h5.376zm11.225 19.852c-1.848 0-3.547-.43-5.096-1.288a9.791 9.791 0 01-3.668-3.584c-.896-1.55-1.344-3.285-1.344-5.208s.448-3.65 1.344-5.18a9.791 9.791 0 013.668-3.584C26.271.493 27.97.064 29.817.064c1.848 0 3.538.43 5.068 1.288a9.332 9.332 0 013.64 3.584c.896 1.53 1.344 3.257 1.344 5.18 0 1.923-.448 3.659-1.344 5.208a9.586 9.586 0 01-3.64 3.584c-1.53.859-3.22 1.288-5.068 1.288zm0-4.368c1.568 0 2.819-.523 3.752-1.568.952-1.045 1.428-2.427 1.428-4.144 0-1.736-.476-3.117-1.428-4.144-.933-1.045-2.184-1.568-3.752-1.568-1.587 0-2.856.513-3.808 1.54-.933 1.027-1.4 2.417-1.4 4.172 0 1.736.467 3.127 1.4 4.172.952 1.027 2.221 1.54 3.808 1.54zM47.237.344v11.76c0 1.176.29 2.081.868 2.716.579.635 1.428.952 2.548.952s1.979-.317 2.576-.952.896-1.54.896-2.716V.344h4.788v11.732c0 1.755-.373 3.239-1.12 4.452a7.153 7.153 0 01-3.024 2.744c-1.25.616-2.65.924-4.2.924-1.55 0-2.94-.299-4.172-.896-1.213-.616-2.175-1.53-2.884-2.744-.71-1.232-1.064-2.725-1.064-4.48V.344h4.788zM72.299 20l-4.088-7.42h-1.148V20h-4.788V.344h8.036c1.55 0 2.865.27 3.948.812 1.101.541 1.923 1.288 2.464 2.24.541.933.812 1.979.812 3.136 0 1.307-.373 2.473-1.12 3.5-.728 1.027-1.81 1.755-3.248 2.184L77.703 20H72.3zM67.063 9.192h2.968c.877 0 1.53-.215 1.96-.644.448-.43.672-1.036.672-1.82 0-.747-.224-1.335-.672-1.764-.43-.43-1.083-.644-1.96-.644h-2.968v4.872zm24.2 7.112h6.271V20h-11.06V.344h4.788v15.96zm17.851 3.892c-1.848 0-3.547-.43-5.096-1.288a9.792 9.792 0 01-3.668-3.584c-.896-1.55-1.344-3.285-1.344-5.208s.448-3.65 1.344-5.18a9.792 9.792 0 013.668-3.584c1.549-.859 3.248-1.288 5.096-1.288 1.848 0 3.537.43 5.068 1.288a9.331 9.331 0 013.64 3.584c.896 1.53 1.344 3.257 1.344 5.18 0 1.923-.448 3.659-1.344 5.208a9.583 9.583 0 01-3.64 3.584c-1.531.859-3.22 1.288-5.068 1.288zm0-4.368c1.568 0 2.819-.523 3.752-1.568.952-1.045 1.428-2.427 1.428-4.144 0-1.736-.476-3.117-1.428-4.144-.933-1.045-2.184-1.568-3.752-1.568-1.587 0-2.856.513-3.808 1.54-.933 1.027-1.4 2.417-1.4 4.172 0 1.736.467 3.127 1.4 4.172.952 1.027 2.221 1.54 3.808 1.54zm25.764-9.268a3.484 3.484 0 00-1.54-1.484c-.654-.355-1.428-.532-2.324-.532-1.55 0-2.791.513-3.724 1.54-.934 1.008-1.4 2.361-1.4 4.06 0 1.81.485 3.23 1.456 4.256.989 1.008 2.342 1.512 4.06 1.512 1.176 0 2.165-.299 2.968-.896.821-.597 1.418-1.456 1.792-2.576h-6.076V8.912h10.416v4.452c-.355 1.195-.962 2.305-1.82 3.332-.84 1.027-1.914 1.857-3.22 2.492-1.307.635-2.782.952-4.424.952-1.942 0-3.678-.42-5.208-1.26a9.293 9.293 0 01-3.556-3.556c-.84-1.512-1.26-3.239-1.26-5.18 0-1.941.42-3.668 1.26-5.18a9.044 9.044 0 013.556-3.556c1.512-.859 3.238-1.288 5.18-1.288 2.352 0 4.33.57 5.936 1.708 1.624 1.139 2.697 2.716 3.22 4.732h-5.292zm17.576 13.636c-1.848 0-3.547-.43-5.096-1.288a9.792 9.792 0 01-3.668-3.584c-.896-1.55-1.344-3.285-1.344-5.208s.448-3.65 1.344-5.18a9.792 9.792 0 013.668-3.584c1.549-.859 3.248-1.288 5.096-1.288 1.848 0 3.537.43 5.068 1.288a9.331 9.331 0 013.64 3.584c.896 1.53 1.344 3.257 1.344 5.18 0 1.923-.448 3.659-1.344 5.208a9.583 9.583 0 01-3.64 3.584c-1.531.859-3.22 1.288-5.068 1.288zm0-4.368c1.568 0 2.819-.523 3.752-1.568.952-1.045 1.428-2.427 1.428-4.144 0-1.736-.476-3.117-1.428-4.144-.933-1.045-2.184-1.568-3.752-1.568-1.587 0-2.856.513-3.808 1.54-.933 1.027-1.4 2.417-1.4 4.172 0 1.736.467 3.127 1.4 4.172.952 1.027 2.221 1.54 3.808 1.54z" fill="#22262A"/></svg>